<svg id="eQcsY86SATw1" xmlns="http://www.w3.org/2000/svg" xmlns:xlink="http://www.w3.org/1999/xlink" viewBox="0 0 732 603.79273" shape-rendering="geometricPrecision" text-rendering="geometricPrecision"><rect width="144.26" height="134.953" rx="0" ry="0" transform="translate(58.9449 354.474)" fill="#00ff14"/><path d="M496.14961,684.454h-262.14961v-228.79918h262.14961Zm-260.59843-1.55118h259.04725v-225.69682h-259.04725Z" transform="translate(-234-148.104)" fill="#fff"/><path d="M855.5748,368.954c-44.662827,0-84.927864-26.904239-102.019585-68.167312s-7.644204-88.758923,23.937188-120.340306s79.077244-41.028888,120.340312-23.937156s68.167297,57.356777,68.167285,102.019604c-.068793,60.957631-49.467569,110.356394-110.4252,110.42517Zm0-219.21447c-60.082651,0-108.789264,48.706609-108.78927,108.78926s48.706599,108.789269,108.78925,108.78928s108.789273-48.706589,108.78929-108.78924c-.067636-60.054617-48.734653-108.721634-108.78927-108.78927Z" transform="translate(-234-148.104)" fill="#d2d2d2"/><circle r="53.1677" transform="translate(618.303 110.425)" fill="#f5ff00"/><rect width="36.4686" height="36.4687" rx="0" ry="0" transform="matrix(.866025-.5 0.5 0.866025 675.334179 289.878074)" fill="#ff6584"/><rect width="36.4686" height="36.4687" rx="0" ry="0" transform="matrix(.866025-.5 0.5 0.866025 193.333953 112.877683)" fill="#ecebff"/><rect width="36.4686" height="36.4686" rx="0" ry="0" transform="matrix(.866025-.5 0.5 0.866025 631.3904 488.878116)" fill="#ff5252"/><rect width="26.3701" height="26.3701" rx="0" ry="0" transform="translate(117.89 408.766)" fill="#6c63ff"/><circle r="13.0874" transform="translate(618.303 110.425)" fill="#b9b5ff"/><rect width="78.2285" height="78.2284" rx="0" ry="0" transform="matrix(.866025-.5 0.5 0.866025 505.811008 327.235634)" fill="#b9b5ff"/><rect width="420" height="2" rx="0" ry="0" transform="translate(179 601.793)" fill="#cbcbcb"/><path d="M572.38944,480.14641c-2.463474-3.165657-3.398232-7.259887-2.552752-11.181016s3.38435-7.266368,6.933452-9.135584l-2.83038-30.84375l18.32415-6.29156l3.38529,43.6135c2.80657,6.308915.450883,13.719907-5.483296,17.250453s-13.571151,2.064698-17.776464-3.412033Z" transform="translate(-234-148.104)" fill="#ffb8b8"/><path d="M592.0611,303.12114c0,0,12.57481-26.38982,23.74853-17.10686s-15.319,87.31213-15.319,87.31213l-4.02937,75.74867-21.23617-2.12261-6.0041-73.79994Z" transform="translate(-234-148.104)" fill="#ffecec"/><polygon points="189.39,545.442 205.154,558.203 261.875,503.472 238.609,484.639 189.39,545.442" fill="#ffb8b8"/><path d="M423.53549,685.1442l31.04487,25.13019.00125.001c10.925329,8.845535,12.612294,24.872577,3.76811,35.799l-.52045.64289L407,705.57174Z" transform="translate(-234-148.104)" fill="#ffecec"/><polygon points="408.471,580.865 428.753,580.864 438.401,502.636 408.468,502.637 408.471,580.865" fill="#ffb8b8"/><path d="M637.298,722.34686l39.94134-.00162h.00162c14.057249.000751,25.452774,11.396101,25.45374,25.45335v.82714l-65.39549.00243Z" transform="translate(-234-148.104)" fill="#ffecec"/><path d="M678.0594,362.22742c0,0,38.04875,46.32022,29.77728,92.64044s-14.88864,81.0604-14.88864,81.0604l-13.23435,104.2205c0,0,4.96288,28.38351-1.65429,35.69757c0,0,9.92576,17.23983-8.27147,23.857s-28.0158-2.28605-28.0158-2.28605-13.34154-19.21976-5.07008-24.18265l3.48444-204.53023L507.66714,641.80305c0,0-2.43585,21.0559-19.41515,21.28086L467.9641,678.19752L444.804,664.96317l11.58-14.88865c0,0-6.61718-16.54293,8.27147-19.85152l86.02327-112.492l21.50582-57.90028c0,0,11.58006-44.66594,43.01164-62.86317v-19.363Z" transform="translate(-234-148.104)" fill="#ffe7ad"/><path d="M612.7148,281.99417v0c10.369247-12.254554,28.280579-14.783548,41.63739-5.879l1.37423.91616v0c14.683883,16.628898,24.553111,36.948588,28.54478,58.77067l6.1954,33.86975-77.7518,16.84253-18.22756-62.86354c-4.774063-16.464849,2.894348-33.989959,18.22753-41.65654Z" transform="translate(-234-149.351041)" fill="#ffecec"/><path d="M740.45624,487.34748c-4.363551-1.426376-7.87119-4.71227-9.579082-8.973517s-1.440602-9.060121.729952-13.105343L709.178,437.81848l13.357-17.69865l31.12978,39.20977c6.701145,4.188801,9.210241,12.727666,5.840383,19.875775s-11.553511,10.646051-19.048953,8.142105Z" transform="translate(-234-148.104)" fill="#ffb8b8"/><path d="M645.80067,306.80858c0,0-4.96288-33.08588,11.58006-31.43158s41.35734,92.64044,41.35734,92.64044L743.404,442.46066l-21.50582,11.58006-52.9374-66.17172Z" transform="translate(-234-148.104)" fill="#ffecec"/><path d="M676.09457,258.43842h-78.77636c-3.373997-.003781-6.108219-2.738003-6.112-6.112v-33.95529c0-16.255635,8.672277-31.276461,22.75007-39.404278s31.422348-8.127818,45.50014,0s22.75007,23.148643,22.75007,39.404278v33.95533c-.003803,3.37395-2.73797,6.108135-6.11192,6.11196Z" transform="translate(-234-148.104)" fill="#2f2e41"/><circle r="33.3591" transform="matrix(.47966-.877455 0.877455 0.47966 412.056275 76.185623)" fill="#ffb8b8"/><path d="M692.97077,221.76666h-41.98187l-.43061-6.91574-2.15245,6.91574h-6.46431l-.85312-13.70681-4.26619,13.70681h-12.50812v-.6791c0-19.84663,14.07189-35.99265,31.3687-35.99265h5.919c17.29682,0,31.369,16.146,31.369,35.99265Z" transform="translate(-234-148.104)" fill="#2f2e41"/><path d="M652.72634,264.77686c-.513048-.000392-1.025321-.039873-1.53237-.1181l-49.96949-7.69655v-52.0466c0-5.316795,2.112089-10.415828,5.87163-14.17537s8.858575-5.87163,14.17537-5.87163h34.95978l-1.36185,1.3861c-18.94755,19.29058-4.67277,50.57051,5.52257,67.499c1.536425,2.498027,1.261342,5.706484-.67788,7.90652-1.756272,2.017714-4.313075,3.15808-6.98776,3.11663Z" transform="translate(-234-148.104)" fill="#2f2e41"/></svg>